<svg width="147" height="147" viewBox="0 0 147 147" fill="none" xmlns="http://www.w3.org/2000/svg">
<ellipse cx="73.7852" cy="73.2611" rx="73.2149" ry="72.8718" fill="#0B55BE"/>
<path d="M113.722 29.3449H34.7807C32.8823 29.3449 31.3485 30.9322 31.3485 32.8968V114.59C31.3485 116.555 32.8823 118.142 34.7807 118.142H113.722C115.621 118.142 117.154 116.555 117.154 114.59V32.8968C117.154 30.9322 115.621 29.3449 113.722 29.3449ZM83.5293 55.8621H98.3737V59.6026H83.5293V55.8621ZM74.2515 86.7081C73.5572 88.072 72.5657 89.25 71.3555 90.149C70.0899 91.0591 68.6848 91.7251 67.1939 92.1136C65.6341 92.5462 64.0251 92.759 62.4103 92.7463H44.6484V54.8853H61.9169C63.6652 54.8853 65.2526 55.0518 66.7006 55.3626C68.1378 55.6734 69.3605 56.2061 70.3902 56.9276C71.4092 57.6491 72.2136 58.6148 72.7821 59.8135C73.3398 61.0012 73.6294 62.4886 73.6294 64.2534C73.6294 66.1626 73.2111 67.7387 72.3745 69.0152C71.5271 70.2916 70.3044 71.3239 68.6419 72.1342C70.9051 72.8002 72.5675 73.9878 73.6616 75.6528C74.777 77.3399 75.3241 79.3601 75.3241 81.7354C75.3241 83.6668 74.9701 85.3206 74.2515 86.7081ZM104.155 80.8474H85.0201C85.0201 83.0008 85.7388 85.0653 86.8221 86.1753C87.9161 87.2742 89.482 87.8291 91.5307 87.8291C93.0108 87.8291 94.2657 87.4407 95.3383 86.6748C96.4001 85.9089 97.0437 85.0986 97.2797 84.255H103.694C102.664 87.5517 101.098 89.9048 98.9743 91.3255C96.8721 92.7463 94.2979 93.4567 91.3054 93.4567C89.2139 93.4567 87.3369 93.1015 85.6529 92.4244C84.0334 91.7695 82.5747 90.7706 81.3734 89.483C80.1889 88.1607 79.2734 86.6056 78.6812 84.9099C78.0269 83.0341 77.7052 81.0583 77.7266 79.0715C77.7266 77.0181 78.0591 75.1089 78.7027 73.333C79.9361 69.881 82.4996 67.1171 85.7709 65.6853C87.5192 64.9305 89.3962 64.5531 91.2947 64.5753C93.5471 64.5753 95.4992 65.0193 97.1939 65.9295C98.8253 66.7986 100.242 68.0442 101.334 69.5702C102.417 71.0908 103.179 72.8224 103.661 74.7759C104.123 76.6962 104.284 78.7163 104.155 80.8474ZM91.0694 70.2361C89.9111 70.2361 88.935 70.447 88.1842 70.8577C87.4334 71.2684 86.8113 71.779 86.3394 72.3673C85.8899 72.9353 85.5578 73.5926 85.3633 74.2986C85.1917 74.8869 85.0738 75.4863 85.0309 76.0968H96.8828C96.7112 74.1765 96.0676 72.7558 95.2096 71.7568C94.3086 70.7689 92.8606 70.2361 91.0694 70.2361ZM64.416 69.1151C65.3491 68.4158 65.7996 67.2614 65.7996 65.6742C65.8318 64.9194 65.6816 64.1757 65.3598 63.4986C65.0702 62.9548 64.6412 62.4997 64.1157 62.1778C63.5707 61.8358 62.9655 61.6094 62.3352 61.5118C61.6487 61.3786 60.9516 61.312 60.2651 61.3231H52.7249V70.1695H60.8872C62.2923 70.1806 63.4828 69.8255 64.416 69.1151ZM65.6816 77.1068C64.6305 76.2744 63.2254 75.8637 61.4771 75.8637H52.7035V86.2974H61.3055C62.1099 86.2974 62.85 86.2197 63.5686 86.0643C64.2873 85.9089 64.9308 85.6425 65.4778 85.2651C66.0248 84.8988 66.4646 84.3993 66.7971 83.7556C67.1189 83.1118 67.2798 82.2904 67.2798 81.3025C67.2798 79.3379 66.7435 77.9504 65.6816 77.1068Z" fill="white"/>
</svg>
