<svg width="81" height="80" viewBox="0 0 81 80" fill="none" xmlns="http://www.w3.org/2000/svg">
<ellipse cx="40.743" cy="40.4351" rx="39.7512" ry="39.5649" fill="#0B55BE"/>
<path d="M62.4263 16.5913H19.5659C18.5351 16.5913 17.7024 17.4531 17.7024 18.5198V62.8744C17.7024 63.9411 18.5351 64.8029 19.5659 64.8029H62.4263C63.457 64.8029 64.2897 63.9411 64.2897 62.8744V18.5198C64.2897 17.4531 63.457 16.5913 62.4263 16.5913ZM46.0333 30.9885H54.0929V33.0194H46.0333V30.9885ZM40.9961 47.736C40.6191 48.4765 40.0808 49.1161 39.4237 49.6042C38.7366 50.0983 37.9737 50.4599 37.1643 50.6709C36.3174 50.9057 35.4438 51.0213 34.567 51.0144H24.9234V30.4582H34.2991C35.2484 30.4582 36.1102 30.5486 36.8964 30.7173C37.6767 30.886 38.3406 31.1753 38.8996 31.567C39.4529 31.9587 39.8896 32.483 40.1983 33.1339C40.5011 33.7787 40.6583 34.5863 40.6583 35.5445C40.6583 36.581 40.4312 37.4368 39.977 38.1298C39.5169 38.8229 38.8531 39.3833 37.9504 39.8233C39.1792 40.1848 40.0818 40.8297 40.6758 41.7336C41.2814 42.6497 41.5784 43.7465 41.5784 45.0361C41.5784 46.0847 41.3862 46.9827 40.9961 47.736ZM57.2318 44.554H46.8428C46.8428 45.7231 47.233 46.8441 47.8211 47.4467C48.4151 48.0433 49.2653 48.3447 50.3776 48.3447C51.1812 48.3447 51.8626 48.1337 52.4449 47.7179C53.0214 47.3021 53.3708 46.8621 53.499 46.4041H56.9814C56.4223 48.194 55.5721 49.4716 54.4191 50.243C53.2777 51.0144 51.88 51.4001 50.2553 51.4001C49.1197 51.4001 48.1006 51.2072 47.1864 50.8396C46.307 50.484 45.515 49.9417 44.8628 49.2426C44.2197 48.5247 43.7227 47.6803 43.4011 46.7597C43.0459 45.7412 42.8712 44.6685 42.8829 43.5898C42.8829 42.4749 43.0634 41.4383 43.4128 40.4741C44.0825 38.5999 45.4743 37.0993 47.2504 36.3219C48.1996 35.9121 49.2187 35.7072 50.2495 35.7192C51.4724 35.7192 52.5323 35.9603 53.4524 36.4545C54.3381 36.9264 55.1072 37.6027 55.7002 38.4311C56.2884 39.2568 56.7018 40.1969 56.9639 41.2576C57.2143 42.3001 57.3016 43.3969 57.2318 44.554ZM50.1272 38.7927C49.4983 38.7927 48.9683 38.9072 48.5607 39.1302C48.1531 39.3532 47.8153 39.6304 47.5591 39.9498C47.315 40.2582 47.1347 40.6151 47.0291 40.9984C46.936 41.3178 46.8719 41.6432 46.8486 41.9747H53.2835C53.1903 40.9321 52.8409 40.1607 52.375 39.6184C51.8859 39.082 51.0997 38.7927 50.1272 38.7927ZM35.656 38.1841C36.1626 37.8044 36.4072 37.1776 36.4072 36.3159C36.4247 35.9061 36.3432 35.5023 36.1685 35.1347C36.0112 34.8394 35.7783 34.5923 35.4929 34.4175C35.1971 34.2319 34.8685 34.1089 34.5263 34.0559C34.1536 33.9836 33.775 33.9475 33.4023 33.9535H29.3085V38.7566H33.7401C34.503 38.7626 35.1494 38.5698 35.656 38.1841ZM36.3432 42.5231C35.7725 42.0711 35.0096 41.8481 34.0604 41.8481H29.2968V47.513H33.9672C34.404 47.513 34.8058 47.4708 35.1959 47.3864C35.5861 47.3021 35.9355 47.1574 36.2325 46.9525C36.5295 46.7537 36.7683 46.4825 36.9488 46.1329C37.1235 45.7834 37.2108 45.3375 37.2108 44.8011C37.2108 43.7344 36.9197 42.9811 36.3432 42.5231Z" fill="white"/>
</svg>
