<svg width="148" height="146" viewBox="0 0 148 146" fill="none" xmlns="http://www.w3.org/2000/svg">
<ellipse cx="73.9613" cy="73.1282" rx="73.2149" ry="72.8718" fill="#0B55BE"/>
<path d="M54.68 27.5H93.32C108.04 27.5 120 39.46 120 54.18V92.82C120 99.896 117.189 106.682 112.186 111.686C107.182 116.689 100.396 119.5 93.32 119.5H54.68C39.96 119.5 28 107.54 28 92.82V54.18C28 47.104 30.8109 40.3179 35.8144 35.3144C40.8179 30.3109 47.604 27.5 54.68 27.5ZM53.76 36.7C49.368 36.7 45.1559 38.4447 42.0503 41.5503C38.9447 44.6559 37.2 48.868 37.2 53.26V93.74C37.2 102.894 44.606 110.3 53.76 110.3H94.24C98.632 110.3 102.844 108.555 105.95 105.45C109.055 102.344 110.8 98.132 110.8 93.74V53.26C110.8 44.106 103.394 36.7 94.24 36.7H53.76ZM98.15 43.6C99.675 43.6 101.138 44.2058 102.216 45.2841C103.294 46.3625 103.9 47.825 103.9 49.35C103.9 50.875 103.294 52.3375 102.216 53.4159C101.138 54.4942 99.675 55.1 98.15 55.1C96.625 55.1 95.1625 54.4942 94.0841 53.4159C93.0058 52.3375 92.4 50.875 92.4 49.35C92.4 47.825 93.0058 46.3625 94.0841 45.2841C95.1625 44.2058 96.625 43.6 98.15 43.6ZM74 50.5C80.1 50.5 85.9501 52.9232 90.2635 57.2365C94.5768 61.5499 97 67.4 97 73.5C97 79.6 94.5768 85.4501 90.2635 89.7635C85.9501 94.0768 80.1 96.5 74 96.5C67.9 96.5 62.0499 94.0768 57.7365 89.7635C53.4232 85.4501 51 79.6 51 73.5C51 67.4 53.4232 61.5499 57.7365 57.2365C62.0499 52.9232 67.9 50.5 74 50.5ZM74 59.7C70.34 59.7 66.8299 61.1539 64.2419 63.7419C61.6539 66.3299 60.2 69.84 60.2 73.5C60.2 77.16 61.6539 80.6701 64.2419 83.2581C66.8299 85.8461 70.34 87.3 74 87.3C77.66 87.3 81.1701 85.8461 83.7581 83.2581C86.3461 80.6701 87.8 77.16 87.8 73.5C87.8 69.84 86.3461 66.3299 83.7581 63.7419C81.1701 61.1539 77.66 59.7 74 59.7Z" fill="white"/>
</svg>
