<svg width="80" height="80" viewBox="0 0 80 80" fill="none" xmlns="http://www.w3.org/2000/svg">
<ellipse cx="39.7512" cy="39.5649" rx="39.7512" ry="39.5649" fill="#0B55BE"/>
<path d="M57.6991 15.7211C59.0719 15.7211 60.3886 16.2855 61.3593 17.2901C62.3301 18.2947 62.8754 19.6572 62.8754 21.078V58.5759C62.8754 59.9966 62.3301 61.3591 61.3593 62.3637C60.3886 63.3683 59.0719 63.9327 57.6991 63.9327H21.4645C20.0916 63.9327 18.775 63.3683 17.8042 62.3637C16.8335 61.3591 16.2881 59.9966 16.2881 58.5759V21.078C16.2881 19.6572 16.8335 18.2947 17.8042 17.2901C18.775 16.2855 20.0916 15.7211 21.4645 15.7211H57.6991ZM56.405 57.2366V43.041C56.405 40.7252 55.516 38.5043 53.9337 36.8668C52.3514 35.2293 50.2052 34.3094 47.9675 34.3094C45.7675 34.3094 43.2052 35.7021 41.9629 37.7913V34.8183H34.7419V57.2366H41.9629V44.032C41.9629 41.9696 43.5676 40.2822 45.5605 40.2822C46.5215 40.2822 47.4431 40.6773 48.1226 41.3805C48.8022 42.0838 49.1839 43.0375 49.1839 44.032V57.2366H56.405ZM26.3302 30.6131C27.4835 30.6131 28.5894 30.1391 29.4049 29.2952C30.2203 28.4513 30.6784 27.3068 30.6784 26.1134C30.6784 23.6225 28.7373 21.5869 26.3302 21.5869C25.1702 21.5869 24.0576 22.0638 23.2373 22.9127C22.417 23.7615 21.9562 24.9129 21.9562 26.1134C21.9562 28.6043 23.9232 30.6131 26.3302 30.6131ZM29.9278 57.2366V34.8183H22.7586V57.2366H29.9278Z" fill="white"/>
</svg>
