<svg width="147" height="146" viewBox="0 0 147 146" fill="none" xmlns="http://www.w3.org/2000/svg">
<ellipse cx="73.2149" cy="72.8718" rx="73.2149" ry="72.8718" fill="#0B55BE"/>
<path d="M106.272 28.9557C108.801 28.9557 111.226 29.9952 113.013 31.8455C114.801 33.6958 115.806 36.2053 115.806 38.8221V107.887C115.806 110.504 114.801 113.013 113.013 114.863C111.226 116.714 108.801 117.753 106.272 117.753H39.534C37.0054 117.753 34.5804 116.714 32.7924 114.863C31.0045 113.013 30 110.504 30 107.887V38.8221C30 36.2053 31.0045 33.6958 32.7924 31.8455C34.5804 29.9952 37.0054 28.9557 39.534 28.9557H106.272ZM103.888 105.42V79.2743C103.888 75.009 102.251 70.9184 99.3368 67.9024C96.4224 64.8864 92.4696 63.192 88.348 63.192C84.2961 63.192 79.5768 65.7573 77.2886 69.6052V64.1294H63.9887V105.42H77.2886V81.0995C77.2886 77.301 80.2441 74.1931 83.9147 74.1931C85.6847 74.1931 87.3822 74.9207 88.6338 76.2159C89.8854 77.5111 90.5885 79.2678 90.5885 81.0995V105.42H103.888ZM48.4959 56.3842C50.6199 56.3842 52.657 55.5111 54.1589 53.9568C55.6607 52.4026 56.5045 50.2945 56.5045 48.0965C56.5045 43.5086 52.9293 39.7594 48.4959 39.7594C46.3593 39.7594 44.3102 40.6377 42.7993 42.2013C41.2885 43.7648 40.4397 45.8853 40.4397 48.0965C40.4397 52.6843 44.0626 56.3842 48.4959 56.3842ZM55.1221 105.42V64.1294H41.9175V105.42H55.1221Z" fill="white"/>
</svg>
