<svg width="147" height="146" viewBox="0 0 147 146" fill="none" xmlns="http://www.w3.org/2000/svg">
<ellipse cx="73.2149" cy="72.8718" rx="73.2149" ry="72.8718" fill="#0B55BE"/>
<path d="M35.4 111C32.815 111 30.6013 110.081 28.7589 108.244C26.9165 106.406 25.9969 104.2 26 101.625V45.375C26 42.7969 26.9212 40.5891 28.7636 38.7516C30.606 36.9141 32.8181 35.9969 35.4 36H110.6C113.185 36 115.399 36.9188 117.241 38.7563C119.083 40.5938 120.003 42.8 120 45.375V101.625C120 104.203 119.079 106.411 117.236 108.248C115.394 110.086 113.182 111.003 110.6 111H35.4ZM73 78.1875L110.6 54.75V45.375L73 68.8125L35.4 45.375V54.75L73 78.1875Z" fill="white"/>
</svg>
