<svg width="81" height="80" viewBox="0 0 81 80" fill="none" xmlns="http://www.w3.org/2000/svg">
<ellipse cx="40.743" cy="39.5649" rx="39.7512" ry="39.5649" fill="#0B55BE"/>
<path d="M20.2118 60.2662C18.8083 60.2662 17.6064 59.7673 16.6061 58.7697C15.6058 57.772 15.1065 56.5742 15.1082 55.1761V24.6358C15.1082 23.2361 15.6083 22.0374 16.6086 21.0397C17.6089 20.0421 18.81 19.5441 20.2118 19.5458H61.0407C62.4442 19.5458 63.6461 20.0446 64.6465 21.0423C65.6468 22.0399 66.1461 23.2378 66.1444 24.6358V55.1761C66.1444 56.5759 65.6442 57.7746 64.6439 58.7722C63.6436 59.7699 62.4425 60.2679 61.0407 60.2662H20.2118ZM40.6263 42.451L61.0407 29.7259V24.6358L40.6263 37.3609L20.2118 24.6358V29.7259L40.6263 42.451Z" fill="white"/>
</svg>
