<svg width="147" height="146" viewBox="0 0 147 146" fill="none" xmlns="http://www.w3.org/2000/svg">
<ellipse cx="73.2149" cy="73.1282" rx="73.2149" ry="72.8718" fill="#0B55BE"/>
<path d="M40.664 35.1C40.664 32.58 41.384 30.528 42.824 28.944C44.264 27.36 46.244 26.568 48.764 26.568H50.276C51.428 26.568 52.004 27.18 52.004 28.404V31.536C52.004 32.256 51.788 32.724 51.356 32.94C50.924 33.156 50.456 33.372 49.952 33.588C49.448 33.732 48.98 33.948 48.548 34.236C48.116 34.524 47.9 35.064 47.9 35.856V57.672C47.9 60.12 47.54 62.1 46.82 63.612C46.1 65.124 45.308 66.348 44.444 67.284C43.58 68.22 42.788 68.904 42.068 69.336C41.348 69.768 40.988 70.092 40.988 70.308C40.988 70.668 41.348 71.1 42.068 71.604C42.788 72.036 43.58 72.72 44.444 73.656C45.308 74.52 46.1 75.744 46.82 77.328C47.54 78.84 47.9 80.784 47.9 83.16V109.836C47.9 110.7 48.116 111.276 48.548 111.564C49.052 111.924 49.556 112.176 50.06 112.32C50.636 112.536 51.14 112.752 51.572 112.968C52.076 113.256 52.328 113.76 52.328 114.48V117.612C52.328 118.116 52.148 118.548 51.788 118.908C51.428 119.268 51.032 119.448 50.6 119.448H49.088C46.496 119.448 44.444 118.656 42.932 117.072C41.42 115.488 40.664 113.436 40.664 110.916V83.376C40.664 82.296 40.448 81.288 40.016 80.352C39.584 79.344 39.044 78.444 38.396 77.652C37.748 76.86 37.028 76.212 36.236 75.708C35.444 75.132 34.688 74.736 33.968 74.52C32.816 74.232 32.24 73.44 32.24 72.144V68.256C32.24 67.608 32.456 67.14 32.888 66.852C33.32 66.564 33.824 66.276 34.4 65.988C36.056 65.412 37.496 64.404 38.72 62.964C40.016 61.452 40.664 59.652 40.664 57.564V35.1Z" fill="white"/>
<path d="M93.1 84.1C93.1 89.7 91.336 94.348 87.808 98.044C84.224 101.964 79.716 103.924 74.284 103.924C68.74 103.924 64.428 101.908 61.348 97.876L61.18 97.96L60.844 103H53.956V42.772H61.348V70.324L61.516 70.408C64.708 66.376 69.02 64.36 74.452 64.36C79.772 64.36 84.224 66.32 87.808 70.24C91.336 74.104 93.1 78.724 93.1 84.1ZM61.264 84.1C61.264 88.356 62.384 91.744 64.624 94.264C66.864 96.784 69.804 98.044 73.444 98.044C77.028 98.044 79.94 96.756 82.18 94.18C84.476 91.548 85.624 88.188 85.624 84.1C85.624 80.012 84.448 76.68 82.096 74.104C79.8 71.528 76.944 70.24 73.528 70.24C69.608 70.24 66.584 71.556 64.456 74.188C62.328 76.82 61.264 80.124 61.264 84.1Z" fill="white"/>
<path d="M106.336 35.1C106.336 32.58 105.616 30.528 104.176 28.944C102.736 27.36 100.756 26.568 98.236 26.568H96.724C95.572 26.568 94.996 27.18 94.996 28.404V31.536C94.996 32.256 95.212 32.724 95.644 32.94C96.076 33.156 96.544 33.372 97.048 33.588C97.552 33.732 98.02 33.948 98.452 34.236C98.884 34.524 99.1 35.064 99.1 35.856V57.672C99.1 60.12 99.46 62.1 100.18 63.612C100.9 65.124 101.692 66.348 102.556 67.284C103.42 68.22 104.212 68.904 104.932 69.336C105.652 69.768 106.012 70.092 106.012 70.308C106.012 70.668 105.652 71.1 104.932 71.604C104.212 72.036 103.42 72.72 102.556 73.656C101.692 74.52 100.9 75.744 100.18 77.328C99.46 78.84 99.1 80.784 99.1 83.16V109.836C99.1 110.7 98.884 111.276 98.452 111.564C97.948 111.924 97.444 112.176 96.94 112.32C96.364 112.536 95.86 112.752 95.428 112.968C94.924 113.256 94.672 113.76 94.672 114.48V117.612C94.672 118.116 94.852 118.548 95.212 118.908C95.572 119.268 95.968 119.448 96.4 119.448H97.912C100.504 119.448 102.556 118.656 104.068 117.072C105.58 115.488 106.336 113.436 106.336 110.916V83.376C106.336 82.296 106.552 81.288 106.984 80.352C107.416 79.344 107.956 78.444 108.604 77.652C109.252 76.86 109.972 76.212 110.764 75.708C111.556 75.132 112.312 74.736 113.032 74.52C114.184 74.232 114.76 73.44 114.76 72.144V68.256C114.76 67.608 114.544 67.14 114.112 66.852C113.68 66.564 113.176 66.276 112.6 65.988C110.944 65.412 109.504 64.404 108.28 62.964C106.984 61.452 106.336 59.652 106.336 57.564V35.1Z" fill="white"/>
</svg>
